<?xml version="1.0" encoding="utf-8"?>
<!-- Generator: Adobe Illustrator 26.4.1, SVG Export Plug-In . SVG Version: 6.00 Build 0)  -->
<svg version="1.1" id="Capa_1" xmlns="http://www.w3.org/2000/svg" xmlns:xlink="http://www.w3.org/1999/xlink" x="0px" y="0px"
	 viewBox="0 0 500 500" style="enable-background:new 0 0 500 500;" xml:space="preserve">
<style type="text/css">
	.st0{fill:#8B96A3;}
	.st1{fill:#8A96A2;}
	.st2{fill:#8B97A3;}
	.st3{fill:#8A96A3;}
</style>
<path class="st0" d="M110.32,114.91c-0.17,3.53-2.45,4.66-5.47,5c-2.68,0.31-6.09-1.21-7.87,0.81c-1.72,1.94-0.4,5.28-0.59,8
	c-0.22,3.02-1.69,5.08-4.77,5.04c-3.14-0.03-4.5-2.18-4.52-5.21c0-0.15,0-0.31-0.01-0.46c-0.34-7.73-0.33-7.77-8.23-8.15
	c-3.33-0.16-5.85-1.36-5.84-4.99c0.01-3.46,2.62-4.44,5.63-4.75c2.67-0.28,6.01,1.23,7.87-0.86c1.63-1.84,0.46-4.99,0.55-7.56
	c0.1-3.21,1.36-5.53,4.78-5.42c3.06,0.1,4.39,2.26,4.55,5.27c0.15,2.7-1.17,6.04,0.71,7.94c1.72,1.74,4.96,0.41,7.51,0.63
	C107.63,110.46,109.99,111.47,110.32,114.91z"/>
<path class="st1" d="M47.78,384.75c-6.11,0-12.22,0.07-18.33-0.03c-4.16-0.07-6.53-2.35-6.59-6c-0.05-3.66,2.32-6.16,6.4-6.19
	c12.37-0.1,24.74-0.1,37.12,0c4.15,0.03,6.45,2.44,6.29,6.22c-0.17,4.12-2.57,5.99-6.55,6C60,384.77,53.89,384.75,47.78,384.75z"/>
<path class="st2" d="M72.64,309.92c-0.34,2.52-2.27,3.09-4.35,2.87c-3.61-0.38-5.52,0.58-4.93,4.64c0.34,2.31-0.28,4.6-3.12,4.54
	c-2.82-0.06-3.35-2.54-3.11-4.71c0.42-3.78-1.2-4.83-4.67-4.46c-2.33,0.25-4.56-0.51-4.51-3.27c0.04-2.45,2.08-3.28,4.28-2.99
	c3.7,0.49,5.36-0.72,4.88-4.68c-0.28-2.25,0.42-4.5,3.27-4.53c3.09-0.03,3.25,2.43,2.97,4.59c-0.53,4.02,1.29,5.07,4.92,4.62
	C70.62,306.25,72.6,306.86,72.64,309.92z"/>
<path class="st2" d="M486.5,284.62c-0.32,2.68-2.31,3.06-4.37,2.8c-3.78-0.47-5.33,0.88-4.86,4.77c0.27,2.28-0.5,4.63-3.17,4.71
	c-2.83,0.08-3.38-2.29-3.09-4.6c0.47-3.81-0.98-5.33-4.83-4.89c-2.01,0.23-4.26,0.05-4.37-2.76c-0.12-3.14,2.28-3.36,4.46-3.1
	c3.99,0.46,5.18-1.31,4.73-4.99c-0.26-2.13,0.26-4.31,2.77-4.48c2.77-0.19,3.78,2.06,3.48,4.34c-0.61,4.53,1.52,5.57,5.46,5.13
	C484.8,281.33,486.21,282.34,486.5,284.62z"/>
<path class="st3" d="M39.98,178.38c-8.22-2.17-16.76,1.56-21.07,9.08c-0.82,1.42-0.94,3.24-2.43,4.28c0,3.37,0,6.73,0,10.1
	c1.48,0.83,1.57,2.52,2.29,3.81c4.22,7.54,12.66,11.27,20.98,9.19c8.35-2.09,14.24-9.43,14.35-17.87
	C54.21,188.35,48.31,180.57,39.98,178.38z M35.08,205.95c-5.16-0.12-9.32-4.41-9.24-9.52c0.08-4.89,4.72-9.33,9.64-9.2
	c4.98,0.12,9.35,4.66,9.25,9.62C44.62,201.92,40.23,206.07,35.08,205.95z"/>
<path class="st1" d="M390.63,341.17c-9.79-0.03-19.59-0.07-29.38,0.03c-2.67,0.03-3.3-0.67-2.04-3.11c1.81-3.51,1.85-7.36,1.85-11.2
	c0-59.68,0.02-119.36-0.02-179.04c-0.01-16.22-10.49-26.65-26.74-26.66c-48.97-0.04-97.93-0.01-146.9-0.02
	c-3.24,0-6.41,0.41-9.47,1.44c-10.7,3.61-17.46,12.83-17.13,24.46c0.14,4.94-1.39,6.41-6.09,5.91c-3.48-0.37-7.05,0.15-10.55-0.11
	c-16.84-1.26-27.71,12.15-27.62,27.72c0.32,58.76,0.14,117.52,0.1,176.28c0,4.18,0.27,8.31,1.95,12.12c1.46,3.3-0.04,3.55-2.71,3.51
	c-6.88-0.09-13.77-0.03-20.66-0.03c-6.9,0-9.81,1.84-9.81,6.16c0,4.32,2.89,6.12,9.83,6.12c49.89,0,99.77,0.03,149.66-0.06
	c3.16-0.01,5.47,0.81,7.63,3.14c3.95,4.26,8.12,8.33,12.32,12.35c3.74,3.59,8.14,4.67,13.1,2.79c4.74-1.8,7.23-5.34,8.12-10.24
	c0.49-2.67-1.02-5.03-0.96-7.97c1.73,0,3.39,0,5.05,0c9.03-0.01,18.06-0.03,27.08-0.01c2.77,0.01,4.81-1.24,5.74-3.74
	c0.82-2.21,0.64-4.46-0.99-6.49c-1.92-2.39-4.7-1.81-7.66-2.33c2.16-4.84,3.32-9.46,3.08-14.22c-0.18-3.67,1.04-4.62,4.64-4.59
	c22.8,0.16,45.6,0.09,68.4,0.07c5.71-0.01,8.24-2.01,8.17-6.32C398.55,343.02,396.15,341.19,390.63,341.17z M304.81,357.04
	c0,10.68-4.8,14.6-15.37,15.65c-12,1.2-21.27-1.91-28.5-11.75c-2.77-3.77-6.66-6.72-10.1-9.99c-2.32-2.21-5.19-3.55-8.34-3.08
	c-4.25,0.63-5.85-2.67-8.17-4.89c-1.48-1.41,0.29-2.5,0.92-3.53c15.87-26.06,3.22-58.12-26.14-66.16
	c-23.52-6.44-48.8,9.21-53.76,33.29c-5.04,24.48,11.26,48.45,35.37,52.46c10.93,1.81,20.94-0.22,30.41-5.69
	c3.39-1.96,9.05,0.26,8.97,4.18c-0.11,5.75,1.47,10.38,6.03,14.01c-1.88,1.43-3.46,0.91-4.9,0.91c-28.77,0.04-57.54,0.04-86.31,0.02
	c-10.95-0.01-15.53-4.66-15.53-15.7c-0.01-58.77-0.01-117.53,0-176.3c0-10.96,4.32-15.27,15.25-15.27c48.36,0,96.72,0,145.08,0
	c10.49,0,15.11,4.6,15.11,15.08C304.82,239.2,304.82,298.12,304.81,357.04z M229.54,315.45c0.05,17.67-13.62,31.57-31.12,31.63
	c-17.6,0.06-31.4-13.68-31.4-31.26c0-17.25,13.87-31.24,31.03-31.31C215.16,284.44,229.49,298.52,229.54,315.45z M348.78,219.51
	c0,6.12,0,12.24,0,18.37c0,29.08,0.01,58.16,0,87.23c0,11.12-4.7,15.86-15.89,16.04c-3.52,0.06-7.06-0.23-10.55,0.07
	c-3.79,0.33-4.95-0.92-4.92-4.81c0.19-20.05,0.09-40.1,0.09-60.14c0-32.14,0.01-64.28,0-96.42c0-9.26-3.12-17.03-10.85-22.61
	c-4.68-3.37-9.92-4.39-15.59-4.38c-37.19,0.07-74.38,0.04-111.57,0.03c-6.32,0-6.32,0-6.14-6.16c0.24-7.89,5.08-12.82,13.08-12.83
	c49.74-0.06,99.48-0.06,149.22,0.01c8.31,0.01,13.1,5.56,13.11,14.88C348.8,172.37,348.78,195.94,348.78,219.51z"/>
<path class="st0" d="M424.16,140.26c-10.48-0.07-19.1,8.36-19.15,18.71c-0.05,10.09,8.45,18.73,18.59,18.91
	c10.28,0.18,18.99-8.46,19.02-18.86C442.64,148.57,434.52,140.33,424.16,140.26z M423.87,168.31c-5.05,0.02-9.33-4.26-9.38-9.37
	c-0.04-4.9,4.5-9.42,9.42-9.38c5,0.04,9.37,4.42,9.4,9.43C433.33,164.01,428.99,168.29,423.87,168.31z"/>
<path class="st0" d="M211.03,228.24c-15.28,0-30.56,0.02-45.85-0.02c-1.97-0.01-3.97-0.17-5.91-0.52c-3.38-0.61-5.09-3-4.83-6.22
	c0.27-3.34,2.25-5.62,5.9-5.88c0.76-0.06,1.53-0.03,2.29-0.03c32.09,0,64.18,0,96.28,0c1.07,0,2.16-0.08,3.2,0.12
	c2.88,0.55,4.64,2.4,4.97,5.26c0.35,3.04-0.98,5.36-3.88,6.57c-1.87,0.78-3.87,0.75-5.87,0.74
	C241.9,228.23,226.46,228.24,211.03,228.24z"/>
<path class="st1" d="M195.09,184.22c11.01,0,22.01-0.03,33.02,0.01c5.07,0.02,7.91,2.41,7.76,6.35c-0.15,3.77-2.83,5.9-7.74,5.9
	c-22.01,0.03-44.03,0.03-66.04,0c-5.08-0.01-7.91-2.4-7.75-6.34c0.15-3.78,2.82-5.89,7.74-5.91
	C173.08,184.19,184.09,184.22,195.09,184.22z"/>
<path class="st0" d="M182.65,246.84c6.88,0,13.75-0.05,20.63,0.02c4.64,0.05,7.5,2.5,7.52,6.24c0.02,3.71-2.83,6.37-7.47,6.4
	c-13.9,0.1-27.81,0.1-41.71,0.01c-4.43-0.03-7.43-2.93-7.28-6.57c0.15-3.63,3.15-6.06,7.68-6.09
	C168.89,246.81,175.77,246.84,182.65,246.84z"/>
</svg>
