<?xml version="1.0" encoding="utf-8"?>
<!-- Generator: Adobe Illustrator 26.4.1, SVG Export Plug-In . SVG Version: 6.00 Build 0)  -->
<svg version="1.1" id="Capa_1" xmlns="http://www.w3.org/2000/svg" xmlns:xlink="http://www.w3.org/1999/xlink" x="0px" y="0px"
	 viewBox="0 0 500 500" style="enable-background:new 0 0 500 500;" xml:space="preserve">
<style type="text/css">
	.st0{fill:#FFFFFF;}
</style>
<path class="st0" d="M471.89,21.53H30.11c-6.6,0-12,5.4-12,12v433.15c0,6.6,5.4,12,12,12h441.78c6.6,0,12-5.4,12-12V33.53
	C483.89,26.93,478.49,21.53,471.89,21.53z M470.47,453.52c0,6.6-5.4,12-12,12H43.53c-6.6,0-12-5.4-12-12V46.7c0-6.6,5.4-12,12-12
	h414.94c6.6,0,12,5.4,12,12V453.52z"/>
<path class="st0" d="M370.11,187.89c-8,0-99.56,105.78-105.78,105.78s-114.67-168-123.56-168C131.89,125.67,23,307.89,23,307.89
	v21.33c0,0,110.62-180.56,118.93-180.56c8.3,0,115.41,166.34,121.22,166.34c5.81,0,100.08-110.81,107.56-110.81
	c7.47,0,108.3,108.59,108.3,108.59v-19.11C479,293.67,378.11,187.89,370.11,187.89z"/>
<circle class="st0" cx="315.44" cy="106.11" r="29.33"/>
</svg>
